<svg xmlns="http://www.w3.org/2000/svg" version="1.1" xmlns:xlink="http://www.w3.org/1999/xlink" xmlns:svgjs="http://svgjs.dev/svgjs" width="1440" height="560" preserveAspectRatio="none" viewBox="0 0 1440 560"><g mask="url(&quot;#SvgjsMask1182&quot;)" fill="none"><rect width="1440" height="560" x="0" y="0" fill="url(&quot;#SvgjsLinearGradient1183&quot;)"></rect><path d="M749.27 657.9C856.26 629.86 799.6 347.55 1052.6 335.83 1305.61 324.11 1504.51 213.25 1659.27 212.63" stroke="rgba(97, 132, 216, 1)" stroke-width="2"></path><path d="M338.25 585.06C481.06 584.09 602.44 453.73 893.24 449.68 1184.04 445.63 1299.68 240.49 1448.23 236.88" stroke="rgba(97, 132, 216, 1)" stroke-width="2"></path><path d="M302.73 594.73C494.16 587.21 624.45 285.1 999.14 275.01 1373.83 264.92 1511.81 42.96 1695.55 39.81" stroke="rgba(97, 132, 216, 1)" stroke-width="2"></path><path d="M212.89 618.32C392.92 610.31 535.74 305.73 862.3 305.53 1188.87 305.33 1343.67 477.64 1511.72 479.13" stroke="rgba(97, 132, 216, 1)" stroke-width="2"></path><path d="M109.86 641.24C240.4 631.7 330.43 377.38 561.39 376.27 792.35 375.16 787.15 446.27 1012.92 446.27 1238.68 446.27 1350.22 376.48 1464.45 376.27" stroke="rgba(97, 132, 216, 1)" stroke-width="2"></path></g><defs><mask id="SvgjsMask1182"><rect width="1440" height="560" fill="#ffffff"></rect></mask><linearGradient x1="15.28%" y1="-39.29%" x2="84.72%" y2="139.29%" gradientUnits="userSpaceOnUse" id="SvgjsLinearGradient1183"><stop stop-color="rgba(255, 255, 255, 1)" offset="0"></stop><stop stop-color="rgba(232, 232, 232, 1)" offset="1"></stop></linearGradient></defs></svg>