<svg xmlns="http://www.w3.org/2000/svg" xmlns:xlink="http://www.w3.org/1999/xlink" width="500" zoomAndPan="magnify" viewBox="0 0 375 374.999991" height="500" preserveAspectRatio="xMidYMid meet" version="1.2"><defs><clipPath id="9a5b87116a"><path d="M 128 56.0625 L 184 56.0625 L 184 201 L 128 201 Z M 128 56.0625 "/></clipPath><clipPath id="a7008707f8"><path d="M 191 56.0625 L 247 56.0625 L 247 201 L 191 201 Z M 191 56.0625 "/></clipPath><clipPath id="5bb886fcdd"><path d="M 271 75 L 281.558594 75 L 281.558594 178 L 271 178 Z M 271 75 "/></clipPath><clipPath id="7325d5989d"><path d="M 93.308594 75 L 104 75 L 104 178 L 93.308594 178 Z M 93.308594 75 "/></clipPath></defs><g id="3d7011d68c"><g clip-rule="nonzero" clip-path="url(#9a5b87116a)"><path style=" stroke:none;fill-rule:nonzero;fill:#6184d8;fill-opacity:1;" d="M 128.195312 56.109375 L 128.195312 152.339844 C 141.660156 161.503906 152.238281 169.402344 159.925781 176.035156 C 163.890625 179.453125 167.617188 182.929688 171.105469 186.46875 C 176.09375 191.578125 179.808594 196.246094 182.257812 200.464844 L 183.25 200.464844 L 183.253906 108.820312 C 182.730469 108.773438 182.265625 108.554688 181.859375 108.164062 L 132.289062 58.59375 Z M 128.195312 56.109375 "/></g><g clip-rule="nonzero" clip-path="url(#a7008707f8)"><path style=" stroke:none;fill-rule:nonzero;fill:#6184d8;fill-opacity:1;" d="M 246.632812 56.109375 L 242.097656 59.035156 L 192.96875 108.164062 C 192.5625 108.554688 192.097656 108.773438 191.570312 108.820312 L 191.578125 200.464844 L 192.570312 200.464844 C 196.167969 194.558594 201.726562 188.109375 209.246094 181.113281 C 219.5 172.132812 226.242188 166.582031 229.472656 164.460938 C 234.703125 160.554688 240.421875 156.515625 246.632812 152.339844 Z M 246.632812 56.109375 "/></g><path style=" stroke:none;fill-rule:nonzero;fill:#6184d8;fill-opacity:1;" d="M 252.347656 62.417969 L 264.382812 62.417969 L 264.382812 164.375 C 260.371094 164.375 256.359375 164.375 252.347656 164.375 C 252.347656 130.390625 252.347656 96.40625 252.347656 62.417969 "/><path style=" stroke:none;fill-rule:nonzero;fill:#6184d8;fill-opacity:1;" d="M 122.480469 62.417969 L 110.445312 62.417969 L 110.445312 164.375 C 114.457031 164.375 118.46875 164.375 122.480469 164.375 C 122.480469 130.390625 122.480469 96.40625 122.480469 62.417969 "/><g clip-rule="nonzero" clip-path="url(#5bb886fcdd)"><path style=" stroke:none;fill-rule:nonzero;fill:#6184d8;fill-opacity:1;" d="M 271 75.351562 L 281.53125 75.351562 C 281.53125 109.238281 281.53125 143.121094 281.53125 177.007812 C 278.019531 177.007812 274.511719 177.007812 271 177.007812 C 271 143.121094 271 109.238281 271 75.351562 "/></g><g clip-rule="nonzero" clip-path="url(#7325d5989d)"><path style=" stroke:none;fill-rule:nonzero;fill:#6184d8;fill-opacity:1;" d="M 103.824219 75.351562 L 93.296875 75.351562 C 93.296875 109.238281 93.296875 143.121094 93.296875 177.007812 C 96.804688 177.007812 100.316406 177.007812 103.824219 177.007812 C 103.824219 143.121094 103.824219 109.238281 103.824219 75.351562 "/></g><path style=" stroke:none;fill-rule:nonzero;fill:#6184d8;fill-opacity:1;" d="M 256.035156 154.625 L 251 157.265625 C 249.09375 158.207031 244.746094 160.671875 237.957031 164.652344 C 235.398438 166.199219 233.070312 167.691406 230.96875 169.117188 C 227.746094 171.28125 223.484375 174.589844 218.179688 179.050781 C 205.785156 189.210938 198.324219 197.167969 195.796875 202.914062 C 218.859375 186.644531 234.433594 176.328125 242.523438 171.960938 C 250.015625 167.839844 256.933594 165.371094 263.273438 164.558594 L 256.035156 154.625 "/><path style=" stroke:none;fill-rule:nonzero;fill:#6184d8;fill-opacity:1;" d="M 118.792969 154.625 L 123.824219 157.265625 C 125.730469 158.207031 130.082031 160.671875 136.871094 164.652344 C 139.429688 166.199219 141.757812 167.691406 143.855469 169.117188 C 147.082031 171.28125 151.34375 174.589844 156.648438 179.050781 C 169.042969 189.210938 176.503906 197.167969 179.027344 202.914062 C 155.964844 186.644531 140.390625 176.328125 132.304688 171.960938 C 124.8125 167.839844 117.894531 165.371094 111.550781 164.558594 L 118.792969 154.625 "/><path style=" stroke:none;fill-rule:nonzero;fill:#6184d8;fill-opacity:1;" d="M 278.175781 168.402344 L 266.242188 172.167969 C 250.878906 177.246094 237.722656 182.578125 226.769531 188.160156 L 218.96875 192.390625 L 211.996094 196.71875 L 205.847656 201.140625 L 200.527344 205.65625 C 200.574219 205.835938 200.769531 205.871094 201.121094 205.765625 C 230 192.289062 246.15625 185.105469 249.597656 184.214844 C 257.078125 181.214844 267.34375 178.570312 280.394531 176.269531 L 278.175781 168.402344 "/><path style=" stroke:none;fill-rule:nonzero;fill:#6184d8;fill-opacity:1;" d="M 96.652344 168.402344 L 108.585938 172.167969 C 123.949219 177.246094 137.105469 182.578125 148.058594 188.160156 L 155.859375 192.390625 L 162.832031 196.71875 L 168.980469 201.140625 L 174.300781 205.65625 C 174.253906 205.835938 174.054688 205.871094 173.707031 205.765625 C 144.828125 192.289062 128.667969 185.105469 125.230469 184.214844 C 117.75 181.214844 107.484375 178.570312 94.429688 176.269531 L 96.652344 168.402344 "/><g style="fill:#6184d8;fill-opacity:1;"><g transform="translate(0.0000045, 276.488542)"><path style="stroke:none" d="M 39.640625 -35.484375 L 45.109375 -35.484375 L 45.109375 0 L 39.6875 0 L 12.921875 -27.71875 C 13.128906 -25.5625 13.332031 -23.398438 13.53125 -21.234375 C 13.738281 -19.078125 13.84375 -16.914062 13.84375 -14.75 L 13.84375 0 L 8.359375 0 L 8.359375 -35.484375 L 13.6875 -35.484375 L 40.5 -7.046875 C 40.257812 -8.703125 40.082031 -10.5 39.96875 -12.4375 C 39.851562 -14.382812 39.769531 -16.335938 39.71875 -18.296875 C 39.664062 -20.253906 39.640625 -22.097656 39.640625 -23.828125 Z M 39.640625 -35.484375 "/></g></g><g style="fill:#6184d8;fill-opacity:1;"><g transform="translate(53.468537, 276.488542)"><path style="stroke:none" d="M 39.28125 -13.328125 C 39.28125 -10.628906 38.5625 -8.238281 37.125 -6.15625 C 35.6875 -4.082031 33.707031 -2.453125 31.1875 -1.265625 C 28.675781 -0.0859375 25.78125 0.5 22.5 0.5 C 19.226562 0.5 16.320312 -0.0859375 13.78125 -1.265625 C 11.25 -2.453125 9.265625 -4.082031 7.828125 -6.15625 C 6.390625 -8.238281 5.671875 -10.628906 5.671875 -13.328125 C 5.671875 -16.035156 6.390625 -18.425781 7.828125 -20.5 C 9.265625 -22.582031 11.25 -24.210938 13.78125 -25.390625 C 16.320312 -26.578125 19.226562 -27.171875 22.5 -27.171875 C 25.78125 -27.171875 28.675781 -26.578125 31.1875 -25.390625 C 33.707031 -24.210938 35.6875 -22.582031 37.125 -20.5 C 38.5625 -18.425781 39.28125 -16.035156 39.28125 -13.328125 Z M 33.953125 -13.328125 C 33.992188 -15.117188 33.503906 -16.695312 32.484375 -18.0625 C 31.472656 -19.4375 30.097656 -20.503906 28.359375 -21.265625 C 26.617188 -22.023438 24.664062 -22.40625 22.5 -22.40625 C 20.34375 -22.40625 18.382812 -22.023438 16.625 -21.265625 C 14.863281 -20.503906 13.476562 -19.4375 12.46875 -18.0625 C 11.457031 -16.695312 10.96875 -15.117188 11 -13.328125 C 10.96875 -11.566406 11.457031 -10.003906 12.46875 -8.640625 C 13.476562 -7.273438 14.863281 -6.203125 16.625 -5.421875 C 18.382812 -4.640625 20.34375 -4.25 22.5 -4.25 C 24.664062 -4.25 26.617188 -4.640625 28.359375 -5.421875 C 30.097656 -6.203125 31.472656 -7.273438 32.484375 -8.640625 C 33.503906 -10.003906 33.992188 -11.566406 33.953125 -13.328125 Z M 33.953125 -13.328125 "/></g></g><g style="fill:#6184d8;fill-opacity:1;"><g transform="translate(98.422639, 276.488542)"><path style="stroke:none" d="M 18.546875 0 L 13.328125 0 L 13.328125 -21.546875 L 5.375 -21.546875 L 5.375 -26.609375 L 13.328125 -26.609375 L 13.328125 -34.625 L 18.546875 -34.625 L 18.546875 -26.609375 L 27.984375 -26.609375 L 27.984375 -21.546875 L 18.546875 -21.546875 Z M 18.546875 0 "/></g></g><g style="fill:#6184d8;fill-opacity:1;"><g transform="translate(132.429614, 276.488542)"><path style="stroke:none" d="M 36.234375 -3.5 L 36.1875 -3.5 C 35.238281 -2.820312 34.035156 -2.171875 32.578125 -1.546875 C 31.128906 -0.921875 29.546875 -0.421875 27.828125 -0.046875 C 26.109375 0.316406 24.351562 0.5 22.5625 0.5 C 19.144531 0.5 16.144531 -0.078125 13.5625 -1.234375 C 10.976562 -2.398438 8.945312 -4.003906 7.46875 -6.046875 C 6 -8.097656 5.265625 -10.425781 5.265625 -13.03125 C 5.265625 -15.257812 5.710938 -17.25 6.609375 -19 C 7.503906 -20.757812 8.726562 -22.25 10.28125 -23.46875 C 11.84375 -24.6875 13.632812 -25.613281 15.65625 -26.25 C 17.6875 -26.894531 19.832031 -27.21875 22.09375 -27.21875 C 24.9375 -27.21875 27.515625 -26.664062 29.828125 -25.5625 C 32.140625 -24.46875 33.976562 -22.957031 35.34375 -21.03125 C 36.71875 -19.101562 37.40625 -16.859375 37.40625 -14.296875 L 37.359375 -11.65625 L 10.640625 -11.65625 C 11.117188 -9.394531 12.515625 -7.613281 14.828125 -6.3125 C 17.140625 -5.007812 20.019531 -4.359375 23.46875 -4.359375 C 26.039062 -4.359375 28.148438 -4.710938 29.796875 -5.421875 C 31.453125 -6.128906 32.804688 -6.789062 33.859375 -7.40625 Z M 22.09375 -22.40625 C 19.257812 -22.40625 16.796875 -21.90625 14.703125 -20.90625 C 12.609375 -19.90625 11.269531 -18.207031 10.6875 -15.8125 L 32.078125 -15.8125 L 32.078125 -16.578125 C 31.910156 -17.722656 31.335938 -18.734375 30.359375 -19.609375 C 29.378906 -20.492188 28.160156 -21.179688 26.703125 -21.671875 C 25.253906 -22.160156 23.71875 -22.40625 22.09375 -22.40625 Z M 22.09375 -22.40625 "/></g></g><g style="fill:#6184d8;fill-opacity:1;"><g transform="translate(176.116699, 276.488542)"><path style="stroke:none" d="M 28.9375 -19.359375 C 27.59375 -20.378906 25.972656 -21.21875 24.078125 -21.875 C 22.179688 -22.53125 20.375 -22.859375 18.65625 -22.859375 C 17.601562 -22.859375 16.492188 -22.773438 15.328125 -22.609375 C 14.160156 -22.441406 13.160156 -22.128906 12.328125 -21.671875 C 11.503906 -21.210938 11.09375 -20.546875 11.09375 -19.671875 C 11.132812 -18.890625 11.539062 -18.242188 12.3125 -17.734375 C 13.09375 -17.234375 14.125 -16.820312 15.40625 -16.5 C 16.6875 -16.175781 18.085938 -15.878906 19.609375 -15.609375 C 21.097656 -15.335938 22.566406 -15.023438 24.015625 -14.671875 C 25.472656 -14.316406 26.789062 -13.859375 27.96875 -13.296875 C 29.15625 -12.742188 30.101562 -12.035156 30.8125 -11.171875 C 31.519531 -10.316406 31.875 -9.265625 31.875 -8.015625 C 31.875 -6.148438 31.304688 -4.582031 30.171875 -3.3125 C 29.046875 -2.050781 27.546875 -1.097656 25.671875 -0.453125 C 23.796875 0.179688 21.726562 0.5 19.46875 0.5 C 16.59375 0.5 13.929688 0.117188 11.484375 -0.640625 C 9.035156 -1.398438 6.960938 -2.691406 5.265625 -4.515625 L 8.8125 -7.75 C 10.0625 -6.539062 11.546875 -5.585938 13.265625 -4.890625 C 14.992188 -4.203125 16.925781 -3.859375 19.0625 -3.859375 C 20.101562 -3.859375 21.210938 -3.941406 22.390625 -4.109375 C 23.578125 -4.273438 24.582031 -4.601562 25.40625 -5.09375 C 26.238281 -5.582031 26.65625 -6.285156 26.65625 -7.203125 C 26.65625 -7.972656 26.25 -8.585938 25.4375 -9.046875 C 24.632812 -9.503906 23.5625 -9.882812 22.21875 -10.1875 C 20.882812 -10.488281 19.457031 -10.757812 17.9375 -11 C 16.320312 -11.300781 14.785156 -11.628906 13.328125 -11.984375 C 11.878906 -12.335938 10.597656 -12.8125 9.484375 -13.40625 C 8.367188 -14 7.488281 -14.785156 6.84375 -15.765625 C 6.195312 -16.742188 5.875 -17.976562 5.875 -19.46875 C 5.875 -21.050781 6.441406 -22.414062 7.578125 -23.5625 C 8.710938 -24.71875 10.238281 -25.609375 12.15625 -26.234375 C 14.082031 -26.859375 16.234375 -27.171875 18.609375 -27.171875 C 20.085938 -27.171875 21.640625 -27.023438 23.265625 -26.734375 C 24.890625 -26.453125 26.441406 -26 27.921875 -25.375 C 29.410156 -24.75 30.679688 -23.925781 31.734375 -22.90625 Z M 28.9375 -19.359375 "/></g></g><g style="fill:#6184d8;fill-opacity:1;"><g transform="translate(213.265927, 276.488542)"><path style="stroke:none" d=""/></g></g><g style="fill:#6184d8;fill-opacity:1;"><g transform="translate(235.768318, 276.488542)"><path style="stroke:none" d="M 37.359375 0 L 33.40625 -8.421875 L 13.6875 -8.421875 L 9.734375 0 L 4 0 L 20.578125 -35.484375 L 26.8125 -35.484375 L 43.34375 0 Z M 20.78125 -23.625 L 16.125 -13.6875 L 30.921875 -13.6875 L 26.203125 -23.828125 C 25.734375 -24.835938 25.273438 -25.832031 24.828125 -26.8125 C 24.390625 -27.789062 23.953125 -28.851562 23.515625 -30 C 23.078125 -28.820312 22.628906 -27.71875 22.171875 -26.6875 C 21.710938 -25.65625 21.25 -24.632812 20.78125 -23.625 Z M 20.78125 -23.625 "/></g></g><g style="fill:#6184d8;fill-opacity:1;"><g transform="translate(283.104418, 276.488542)"><path style="stroke:none" d="M 26.359375 -27.0625 C 29.398438 -27.0625 32.066406 -26.476562 34.359375 -25.3125 C 36.660156 -24.144531 38.441406 -22.53125 39.703125 -20.46875 C 40.972656 -18.414062 41.609375 -16.035156 41.609375 -13.328125 C 41.609375 -10.660156 40.96875 -8.285156 39.6875 -6.203125 C 38.40625 -4.128906 36.628906 -2.5 34.359375 -1.3125 C 32.097656 -0.132812 29.484375 0.453125 26.515625 0.453125 C 23.941406 0.453125 21.632812 0.00390625 19.59375 -0.890625 C 17.550781 -1.785156 15.988281 -2.789062 14.90625 -3.90625 L 14.90625 11.15625 L 9.625 11.15625 L 9.625 -26.65625 L 14.90625 -26.65625 L 14.90625 -22.453125 C 15.539062 -23.234375 16.429688 -23.976562 17.578125 -24.6875 C 18.734375 -25.394531 20.0625 -25.96875 21.5625 -26.40625 C 23.070312 -26.84375 24.671875 -27.0625 26.359375 -27.0625 Z M 25.640625 -22.25 C 23.515625 -22.25 21.625 -21.859375 19.96875 -21.078125 C 18.3125 -20.304688 17.007812 -19.253906 16.0625 -17.921875 C 15.125 -16.585938 14.65625 -15.054688 14.65625 -13.328125 C 14.65625 -11.640625 15.125 -10.117188 16.0625 -8.765625 C 17.007812 -7.410156 18.3125 -6.335938 19.96875 -5.546875 C 21.625 -4.753906 23.515625 -4.359375 25.640625 -4.359375 C 27.804688 -4.359375 29.707031 -4.753906 31.34375 -5.546875 C 32.988281 -6.335938 34.273438 -7.410156 35.203125 -8.765625 C 36.128906 -10.117188 36.59375 -11.640625 36.59375 -13.328125 C 36.59375 -15.054688 36.128906 -16.585938 35.203125 -17.921875 C 34.273438 -19.253906 32.988281 -20.304688 31.34375 -21.078125 C 29.707031 -21.859375 27.804688 -22.25 25.640625 -22.25 Z M 25.640625 -22.25 "/></g></g><g style="fill:#6184d8;fill-opacity:1;"><g transform="translate(330.389879, 276.488542)"><path style="stroke:none" d="M 26.359375 -27.0625 C 29.398438 -27.0625 32.066406 -26.476562 34.359375 -25.3125 C 36.660156 -24.144531 38.441406 -22.53125 39.703125 -20.46875 C 40.972656 -18.414062 41.609375 -16.035156 41.609375 -13.328125 C 41.609375 -10.660156 40.96875 -8.285156 39.6875 -6.203125 C 38.40625 -4.128906 36.628906 -2.5 34.359375 -1.3125 C 32.097656 -0.132812 29.484375 0.453125 26.515625 0.453125 C 23.941406 0.453125 21.632812 0.00390625 19.59375 -0.890625 C 17.550781 -1.785156 15.988281 -2.789062 14.90625 -3.90625 L 14.90625 11.15625 L 9.625 11.15625 L 9.625 -26.65625 L 14.90625 -26.65625 L 14.90625 -22.453125 C 15.539062 -23.234375 16.429688 -23.976562 17.578125 -24.6875 C 18.734375 -25.394531 20.0625 -25.96875 21.5625 -26.40625 C 23.070312 -26.84375 24.671875 -27.0625 26.359375 -27.0625 Z M 25.640625 -22.25 C 23.515625 -22.25 21.625 -21.859375 19.96875 -21.078125 C 18.3125 -20.304688 17.007812 -19.253906 16.0625 -17.921875 C 15.125 -16.585938 14.65625 -15.054688 14.65625 -13.328125 C 14.65625 -11.640625 15.125 -10.117188 16.0625 -8.765625 C 17.007812 -7.410156 18.3125 -6.335938 19.96875 -5.546875 C 21.625 -4.753906 23.515625 -4.359375 25.640625 -4.359375 C 27.804688 -4.359375 29.707031 -4.753906 31.34375 -5.546875 C 32.988281 -6.335938 34.273438 -7.410156 35.203125 -8.765625 C 36.128906 -10.117188 36.59375 -11.640625 36.59375 -13.328125 C 36.59375 -15.054688 36.128906 -16.585938 35.203125 -17.921875 C 34.273438 -19.253906 32.988281 -20.304688 31.34375 -21.078125 C 29.707031 -21.859375 27.804688 -22.25 25.640625 -22.25 Z M 25.640625 -22.25 "/></g></g></g></svg>